<svg width="172" height="52" viewBox="0 0 172 52" fill="none" xmlns="http://www.w3.org/2000/svg">
<path d="M165.516 50.7025H7.17395C3.96506 50.7025 1.36475 48.1022 1.36475 44.8933V7.38245C1.36475 4.17355 3.96506 1.57324 7.17395 1.57324H165.516C168.725 1.57324 171.325 4.17355 171.325 7.38245V44.8933C171.325 48.1022 168.725 50.7025 165.516 50.7025Z" fill="black"/>
<path d="M7.17089 2.2095C4.31854 2.2095 1.99793 4.53011 1.99793 7.38246V44.8933C1.99793 47.7457 4.31854 50.0663 7.17089 50.0663H165.516C168.369 50.0663 170.689 47.7457 170.689 44.8933V7.38246C170.689 4.53011 168.369 2.2095 165.516 2.2095H7.17089ZM165.516 51.3388H7.17089C3.61775 51.3388 0.728516 48.4465 0.728516 44.8933V7.38246C0.728516 3.82932 3.61775 0.937012 7.17089 0.937012H165.516C169.069 0.937012 171.959 3.82932 171.959 7.38246V44.8933C171.959 48.4465 169.069 51.3388 165.516 51.3388Z" fill="#6FD8F5"/>
<path d="M60.1052 14.1291L59.4536 12.0882C59.2938 11.5841 59.1585 11.0216 59.0356 10.5422H59.011C58.8911 11.0216 58.7651 11.5964 58.6207 12.0882L57.9813 14.1291H60.1052ZM57.7354 15.2694L57.0224 17.6177H55.4609L58.1166 9.33728H60.0438L62.7332 17.6177H61.1134L60.3634 15.2694" fill="white"/>
<path d="M64.9924 11.6364L65.9636 14.667C66.1358 15.1956 66.2556 15.6751 66.3663 16.1669H66.4032C66.5138 15.6751 66.6491 15.2079 66.8089 14.667L67.7679 11.6364H69.3508L67.0671 17.6177H65.5825L63.3572 11.6364" fill="white"/>
<path d="M73.9092 14.6916C72.8396 14.6793 71.8191 14.9006 71.8191 15.8104C71.8191 16.4005 72.2003 16.671 72.6798 16.671C73.2914 16.671 73.7248 16.2776 73.8693 15.8472C73.9092 15.7366 73.9092 15.6259 73.9092 15.5153V14.6916ZM75.3815 16.1792C75.3815 16.7202 75.4061 17.2488 75.4799 17.6146H74.1152L74.0076 16.9538H73.9676C73.6141 17.4179 72.9871 17.7498 72.2003 17.7498C70.9954 17.7498 70.3223 16.88 70.3223 15.9702C70.3223 14.4702 71.6593 13.6988 73.8693 13.7111V13.6127C73.8693 13.2193 73.7125 12.5677 72.6552 12.5677C72.065 12.5677 71.4503 12.7521 71.0446 13.0103L70.7495 12.0267C71.1921 11.7562 71.9667 11.5011 72.9134 11.5011C74.8282 11.5011 75.3815 12.7152 75.3815 14.0307" fill="white"/>
<path d="M77.5177 11.6364H79.0269V17.6178H77.5177V11.6364ZM78.2646 10.7758C77.7636 10.7758 77.4316 10.407 77.4316 9.96436C77.4316 9.49717 77.7728 9.14062 78.28 9.14062C78.7933 9.14062 79.1129 9.49717 79.1252 9.96436C79.1252 10.407 78.7933 10.7758 78.28 10.7758" fill="white"/>
<path d="M81.2 17.6176H82.7122V8.88232H81.2V17.6176Z" fill="white"/>
<path d="M88.0664 14.6916C86.9968 14.6793 85.9764 14.9006 85.9764 15.8104C85.9764 16.4005 86.3575 16.671 86.837 16.671C87.4517 16.671 87.882 16.2776 88.0296 15.8472C88.0664 15.7366 88.0664 15.6259 88.0664 15.5153V14.6916ZM89.5387 16.1792C89.5387 16.7202 89.5633 17.2488 89.6371 17.6146H88.2755L88.1648 16.9538H88.1279C87.7714 17.4179 87.1444 17.7498 86.3575 17.7498C85.1557 17.7498 84.4795 16.88 84.4795 15.9702C84.4795 14.4702 85.8196 13.6988 88.0296 13.7111V13.6127C88.0296 13.2193 87.8697 12.5677 86.8124 12.5677C86.2223 12.5677 85.6075 12.7521 85.2049 13.0103L84.9098 12.0267C85.3524 11.7562 86.1239 11.5011 87.0706 11.5011C88.9855 11.5011 89.5387 12.7152 89.5387 14.0307" fill="white"/>
<path d="M93.1871 15.1464C93.1871 15.2694 93.1994 15.3923 93.224 15.503C93.3839 16.1177 93.9125 16.5603 94.5611 16.5603C95.5078 16.5603 96.0856 15.8103 96.0856 14.5962C96.0856 13.5389 95.5815 12.6783 94.5734 12.6783C93.9586 12.6783 93.3962 13.1209 93.2363 13.7848C93.2117 13.8955 93.1871 14.0307 93.1871 14.1782V15.1464ZM91.6749 8.88232H93.1871V12.457H93.2117C93.5806 11.8791 94.2291 11.5011 95.1266 11.5011C96.5897 11.5011 97.6317 12.7152 97.6194 14.5348C97.6194 16.6833 96.2577 17.7529 94.9053 17.7529C94.1308 17.7529 93.4453 17.4578 93.015 16.7201H92.9904L92.9167 17.6176H91.6257C91.6503 17.2119 91.6749 16.548 91.6749 15.9456" fill="white"/>
<path d="M99.3989 17.6176H100.908V8.88232H99.3989V17.6176Z" fill="white"/>
<path d="M106.791 13.9938C106.803 13.4406 106.558 12.5308 105.552 12.5308C104.618 12.5308 104.225 13.3791 104.163 13.9938H106.791ZM104.163 15.0481C104.2 16.13 105.048 16.5972 106.007 16.5972C106.705 16.5972 107.197 16.4866 107.664 16.3267L107.885 17.3564C107.369 17.5808 106.656 17.7375 105.798 17.7375C103.856 17.7375 102.712 16.548 102.712 14.7192C102.712 13.0594 103.721 11.5011 105.639 11.5011C107.578 11.5011 108.217 13.0963 108.217 14.4118C108.217 14.6946 108.193 14.9159 108.168 15.0481" fill="white"/>
<path d="M115.72 16.6587C116.578 16.6587 117.18 15.8227 117.18 14.6086C117.18 13.6742 116.762 12.5922 115.732 12.5922C114.663 12.5922 114.232 13.6373 114.232 14.6332C114.232 15.7858 114.81 16.6587 115.705 16.6587H115.72ZM115.671 17.7529C113.987 17.7529 112.674 16.5972 112.674 14.67C112.674 12.7029 113.962 11.5011 115.769 11.5011C117.549 11.5011 118.741 12.7521 118.741 14.5717C118.741 16.7693 117.192 17.7529 115.683 17.7529" fill="white"/>
<path d="M120.518 13.416C120.518 12.7275 120.497 12.1496 120.472 11.6333H121.784L121.858 12.5308H121.895C122.166 12.0636 122.817 11.5011 123.813 11.5011C124.855 11.5011 125.937 12.1742 125.937 14.0676V17.6146H124.425V14.2397C124.425 13.3791 124.105 12.7275 123.284 12.7275C122.682 12.7275 122.264 13.1578 122.104 13.6127C122.055 13.7356 122.03 13.9201 122.03 14.0922V17.6146H120.518" fill="white"/>
<path d="M132.899 10.0996V11.6334H134.334V12.7645H132.899V15.3924C132.899 16.1301 133.095 16.499 133.67 16.499C133.941 16.499 134.088 16.4867 134.26 16.4375L134.285 17.5778C134.064 17.6669 133.658 17.7376 133.191 17.7376C132.628 17.7376 132.173 17.5532 131.891 17.2489C131.559 16.9047 131.411 16.3514 131.411 15.5646V12.7645H130.563V11.6334H131.411V10.5176" fill="white"/>
<path d="M136.015 8.88232H137.528V12.4447H137.552C137.737 12.1619 137.995 11.9283 138.302 11.7685C138.61 11.5994 138.963 11.5011 139.344 11.5011C140.365 11.5011 141.431 12.1742 141.431 14.0922V17.6176H139.922V14.252C139.922 13.3914 139.602 12.7275 138.766 12.7275C138.179 12.7275 137.761 13.1209 137.589 13.5758C137.54 13.711 137.528 13.8709 137.528 14.0307V17.6176H136.015" fill="white"/>
<path d="M147.277 13.9938C147.29 13.4406 147.044 12.5308 146.035 12.5308C145.101 12.5308 144.711 13.3791 144.649 13.9938H147.277ZM144.649 15.0481C144.686 16.13 145.531 16.5972 146.49 16.5972C147.191 16.5972 147.683 16.4866 148.147 16.3267L148.371 17.3564C147.855 17.5808 147.142 17.7375 146.281 17.7375C144.342 17.7375 143.198 16.548 143.198 14.7192C143.198 13.0594 144.207 11.5011 146.122 11.5011C148.061 11.5011 148.7 13.0963 148.7 14.4118C148.7 14.6946 148.676 14.9159 148.651 15.0481" fill="white"/>
<path d="M38.9433 25.6461C38.9034 21.5489 42.2967 19.5541 42.4535 19.4619C40.5324 16.6588 37.5541 16.2776 36.5059 16.2469C34.0071 15.9856 31.5819 17.7468 30.3095 17.7468C29.0093 17.7468 27.0452 16.2746 24.9336 16.3176C22.2104 16.3606 19.6654 17.9374 18.2699 20.381C15.393 25.3695 17.5384 32.6971 20.2986 36.7297C21.6817 38.703 23.2923 40.9099 25.4039 40.83C27.4694 40.7439 28.2409 39.5145 30.7336 39.5145C33.2048 39.5145 33.9302 40.83 36.0848 40.7808C38.3009 40.7439 39.6964 38.7983 41.0273 36.8035C42.6256 34.5413 43.2649 32.3129 43.2895 32.1992C43.2372 32.1807 38.9864 30.5578 38.9433 25.6461Z" fill="white"/>
<path d="M34.8738 13.5974C35.9834 12.2081 36.7487 10.3147 36.5336 8.39673C34.9261 8.4705 32.9159 9.50939 31.7571 10.8679C30.7336 12.0667 29.8146 14.0307 30.0543 15.8749C31.8616 16.0102 33.7151 14.9651 34.8738 13.5974Z" fill="white"/>
<path d="M63.8706 33.4685L62.4445 29.0639C62.2939 28.6152 62.0111 27.5548 61.5931 25.8889H61.5439C61.3779 26.605 61.1074 27.6654 60.7417 29.0639L59.3401 33.4685H63.8706ZM68.8008 40.5041H65.9208L64.344 35.5493H58.8667L57.3637 40.5041H54.5605L59.9948 23.6359H63.345" fill="white"/>
<path d="M80.0134 34.3721C80.0134 33.1857 79.746 32.2114 79.2112 31.443C78.6272 30.6438 77.8434 30.2412 76.8598 30.2412C76.1929 30.2412 75.5843 30.4655 75.0464 30.9051C74.5054 31.3507 74.1489 31.9286 73.9798 32.6478C73.8968 32.9798 73.8569 33.2533 73.8569 33.4685V35.4971C73.8569 36.3823 74.1274 37.1292 74.6683 37.7378C75.2124 38.3495 75.9162 38.6507 76.783 38.6507C77.8035 38.6507 78.5965 38.2603 79.1589 37.4735C79.7306 36.6897 80.0134 35.6569 80.0134 34.3721ZM82.7674 34.2707C82.7674 36.3393 82.208 37.9775 81.0892 39.1763C80.0872 40.2459 78.8423 40.7776 77.3608 40.7776C75.7564 40.7776 74.6069 40.1998 73.9061 39.0502H73.8569V45.4588H71.1521V32.3435C71.1521 31.0434 71.1213 29.7094 71.0537 28.3386H73.4296L73.5803 30.2688H73.6325C74.5331 28.815 75.9009 28.0896 77.7358 28.0896C79.1682 28.0896 80.37 28.6582 81.3259 29.7924C82.2848 30.9297 82.7674 32.4204 82.7674 34.2707Z" fill="white"/>
<path d="M94.0015 34.3721C94.0015 33.1857 93.7341 32.2114 93.1993 31.443C92.6153 30.6438 91.8315 30.2412 90.848 30.2412C90.181 30.2412 89.5755 30.4655 89.0345 30.9051C88.4905 31.3507 88.1401 31.9286 87.9741 32.6478C87.8881 32.9798 87.8481 33.2533 87.8481 33.4685V35.4971C87.8481 36.3823 88.1155 37.1292 88.6565 37.7378C89.2005 38.3495 89.9044 38.6507 90.7742 38.6507C91.7916 38.6507 92.5846 38.2603 93.1501 37.4735C93.7157 36.6897 94.0015 35.6569 94.0015 34.3721ZM96.7525 34.2707C96.7525 36.3393 96.1961 37.9775 95.0773 39.1763C94.0753 40.2459 92.8336 40.7776 91.349 40.7776C89.7476 40.7776 88.5981 40.1998 87.8942 39.0502H87.8481V45.4588H85.1433V32.3435C85.1433 31.0434 85.1095 29.7094 85.0449 28.3386H87.4209L87.5715 30.2688H87.6237C88.5212 28.815 89.889 28.0896 91.724 28.0896C93.1594 28.0896 94.355 28.6582 95.3171 29.7924C96.2761 30.9297 96.7525 32.4204 96.7525 34.2707Z" fill="white"/>
<path d="M112.397 35.7738C112.397 37.2061 111.899 38.3741 110.897 39.2778C109.797 40.2613 108.269 40.7531 106.305 40.7531C104.489 40.7531 103.032 40.4027 101.928 39.7019L102.555 37.452C103.745 38.1682 105.045 38.5247 106.465 38.5247C107.483 38.5247 108.276 38.2973 108.844 37.8393C109.41 37.3783 109.693 36.7635 109.693 35.9951C109.693 35.3128 109.462 34.7318 108.995 34.2646C108.528 33.7974 107.75 33.3641 106.665 32.9614C103.711 31.858 102.236 30.2443 102.236 28.1235C102.236 26.7373 102.752 25.6 103.788 24.7148C104.821 23.8296 106.198 23.3839 107.916 23.3839C109.453 23.3839 110.728 23.6544 111.746 24.1861L111.07 26.3899C110.12 25.8736 109.044 25.6123 107.842 25.6123C106.889 25.6123 106.149 25.8459 105.617 26.3131C105.168 26.7311 104.941 27.2413 104.941 27.8407C104.941 28.5077 105.196 29.0579 105.715 29.4913C106.164 29.8908 106.982 30.3242 108.168 30.7945C109.619 31.3785 110.685 32.0608 111.371 32.8446C112.053 33.6284 112.397 34.6058 112.397 35.7738Z" fill="white"/>
<path d="M121.329 30.3672H118.351V36.2717C118.351 37.7747 118.877 38.5247 119.931 38.5247C120.41 38.5247 120.813 38.4847 121.13 38.4017L121.203 40.4519C120.675 40.6547 119.971 40.7531 119.104 40.7531C118.037 40.7531 117.201 40.4273 116.599 39.7787C116 39.1271 115.698 38.0329 115.698 36.4991V30.3672H113.922V28.3386H115.698V26.1133L118.351 25.311V28.3386H121.329" fill="white"/>
<path d="M131.967 34.409C131.967 33.2871 131.725 32.3282 131.239 31.5229C130.676 30.5516 129.865 30.066 128.814 30.066C127.729 30.066 126.902 30.5516 126.336 31.5229C125.851 32.3282 125.614 33.3056 125.614 34.4613C125.614 35.5832 125.851 36.5421 126.336 37.3444C126.92 38.3156 127.738 38.8013 128.792 38.8013C129.822 38.8013 130.633 38.3095 131.217 37.3198C131.718 36.5022 131.967 35.5309 131.967 34.409ZM134.771 34.323C134.771 36.1918 134.239 37.7255 133.169 38.9273C132.05 40.1629 130.566 40.7776 128.715 40.7776C126.927 40.7776 125.507 40.1844 124.446 39.0011C123.389 37.8177 122.86 36.3239 122.86 34.5228C122.86 32.6355 123.404 31.0926 124.498 29.8938C125.59 28.689 127.062 28.0896 128.912 28.0896C130.698 28.0896 132.136 28.6828 133.218 29.8662C134.254 31.0219 134.771 32.5034 134.771 34.323Z" fill="white"/>
<path d="M143.555 30.7176C143.288 30.6684 143.005 30.6438 142.704 30.6438C141.754 30.6438 141.016 31.0034 140.5 31.7196C140.051 32.3558 139.827 33.155 139.827 34.1201V40.5041H137.125L137.146 32.1714C137.146 30.7668 137.113 29.4912 137.048 28.3386H139.403L139.501 30.6684H139.572C139.857 29.8692 140.309 29.2238 140.924 28.7412C141.526 28.3078 142.178 28.0896 142.879 28.0896C143.128 28.0896 143.355 28.108 143.555 28.1388" fill="white"/>
<path d="M153.062 33.1458C153.08 32.3467 152.905 31.652 152.539 31.068C152.072 30.3181 151.35 29.94 150.385 29.94C149.503 29.94 148.783 30.3088 148.233 31.0434C147.784 31.6274 147.514 32.3282 147.437 33.1458H153.062ZM155.638 33.8466C155.638 34.3322 155.607 34.738 155.542 35.073H147.437C147.465 36.2748 147.858 37.1938 148.611 37.827C149.294 38.3956 150.179 38.6753 151.264 38.6753C152.462 38.6753 153.557 38.4848 154.543 38.1005L154.967 39.9785C153.815 40.4765 152.456 40.7316 150.886 40.7316C149.002 40.7316 147.52 40.1753 146.444 39.0626C145.372 37.9561 144.831 36.4654 144.831 34.5966C144.831 32.7616 145.328 31.234 146.334 30.0168C147.382 28.7136 148.802 28.0651 150.584 28.0651C152.336 28.0651 153.667 28.7136 154.568 30.0168C155.284 31.0496 155.638 32.3282 155.638 33.8466Z" fill="white"/>
</svg>
