<svg width="158" height="27" viewBox="0 0 158 27" fill="none" xmlns="http://www.w3.org/2000/svg">
<path d="M20.158 2.27131C17.6681 -0.467573 12.7518 -0.600789 9.84233 1.98497C7.94503 3.67312 7.43709 5.7833 7.30886 7.01456H1.92695C2.09936 5.61479 2.78093 4.32743 3.84168 3.39798C4.80463 2.56412 6.02023 2.07867 7.29267 2.01983C7.7172 1.31145 8.55256 0.583155 8.88123 0.319227L8.95841 0.256979C8.85145 0.220381 8.74148 0.193299 8.62975 0.176055C6.40877 -0.0965888 4.14794 0.58067 2.5793 1.98871C-0.345077 4.61056 0.00475486 7.93208 0.0209392 8.07027L0.118041 8.90812H8.22265H9.11652V7.89722C9.11431 7.07794 9.27871 6.26677 9.59973 5.51301C9.92076 4.75924 10.3917 4.07862 10.9839 3.51252C14.1511 5.07617 14.1187 8.31926 14.115 8.45745V10.6984H15.2977C15.7272 10.6984 16.0098 10.6834 16.0098 10.6834V8.506C16.0521 7.03572 15.3873 4.18728 12.8153 2.40576C14.8757 1.65008 17.388 2.04846 18.7674 3.56854L18.7873 3.59095C20.6784 5.54178 20.4717 7.41419 20.463 7.48391L20.453 7.54117V7.61586C20.3795 8.76086 19.94 9.85193 19.1994 10.7282C18.7109 11.2945 18.1082 11.7509 17.4309 12.0676C16.7535 12.3843 16.0167 12.5541 15.2691 12.5658H10.0502V14.4593H15.2715C16.2909 14.446 17.2959 14.2173 18.2207 13.7882C19.1454 13.3591 19.969 12.7393 20.6373 11.9694C21.6586 10.7661 22.2595 9.26258 22.3491 7.68683C22.3964 7.21749 22.5159 4.72634 20.1605 2.28997L20.158 2.27131Z" fill="white"/>
<path d="M20.3385 14.725C20.4281 14.8171 20.5476 14.9491 20.636 15.05C21.6576 16.2531 22.2587 17.7567 22.3478 19.3326C22.3951 19.8007 22.5147 22.2918 20.1592 24.7294C17.6693 27.4683 12.753 27.6003 9.84358 25.0145C7.94628 23.3276 7.43833 21.2174 7.3101 19.9862H1.92695C2.09959 21.3859 2.78111 22.6731 3.84168 23.6027C4.80474 24.4362 6.02036 24.9213 7.29267 24.9796C7.7172 25.6893 8.55256 26.4163 8.88123 26.6803L8.95841 26.7437C8.85147 26.7801 8.74148 26.8068 8.62975 26.8234C6.40877 27.0973 4.14794 26.4201 2.5793 25.012C-0.345077 22.3902 0.00475486 19.0699 0.0209392 18.9292L0.118041 18.0914H8.22265H9.11652V19.101C9.11436 19.9205 9.27878 20.7318 9.59979 21.4858C9.92081 22.2397 10.3917 22.9206 10.9839 23.487C14.1511 21.9221 14.1187 18.6802 14.115 18.5408V16.2999H15.2977C15.7272 16.2999 16.0098 16.3161 16.0098 16.3161V18.4922C16.0521 19.9638 15.3873 22.811 12.8153 24.5999C14.8757 25.3544 17.388 24.9573 18.7674 23.4359L18.7873 23.4148C20.6784 21.4639 20.4717 19.5915 20.463 19.5218L20.453 19.4633V19.3886C20.3801 18.2435 19.9405 17.1522 19.1994 16.2762C19.0048 16.0537 18.7942 15.8457 18.5694 15.6538C18.5694 15.6538 19.1271 15.4197 19.5442 15.1919C19.9613 14.964 20.336 14.7163 20.336 14.7163L20.3385 14.725Z" fill="white"/>
<path d="M42.7066 3.94678V7.36415H36.7122V23.5485H33.2948V7.36415H27.3004V3.94678H42.7066Z" fill="white"/>
<path d="M57.3583 16.3284V23.5491H53.9384V16.3782C53.9469 15.6972 53.796 15.0236 53.4977 14.4112C53.226 13.8449 52.8163 13.356 52.3063 12.9895C51.8239 12.6398 51.2425 12.4532 50.6467 12.4567C49.9554 12.4567 49.3815 12.6343 48.925 12.9895C48.4568 13.3576 48.1021 13.8504 47.9016 14.4112C47.6711 15.0411 47.5572 15.7076 47.5655 16.3782V23.5491H44.1207V2.54688H47.5381V10.8805C47.8825 10.2 48.3494 9.74724 48.9387 9.52232C49.594 9.28693 50.2867 9.17301 50.9829 9.18617C52.2718 9.18617 53.3923 9.5107 54.3442 10.1597C55.2968 10.815 56.0581 11.7117 56.5503 12.7579C57.0792 13.8741 57.3551 15.0933 57.3583 16.3284Z" fill="white"/>
<path d="M66.9446 13.0229C66.6897 12.8538 66.4145 12.7174 66.1255 12.6171C65.8119 12.5114 65.4828 12.4592 65.1519 12.4627C64.5239 12.4466 63.9074 12.6334 63.394 12.9956C62.8995 13.36 62.5124 13.8512 62.2736 14.4173C62.0064 15.0382 61.8728 15.7084 61.8814 16.3843V23.5552H58.4354V9.54953H61.8528V11.1991C62.3023 10.5976 62.8727 10.0968 63.5273 9.7288C64.202 9.35758 64.9621 9.16919 65.7321 9.18228C66.0499 9.18228 66.3558 9.1914 66.6496 9.20966C66.9373 9.22752 67.2219 9.27934 67.4974 9.36404L66.9446 13.0229Z" fill="white"/>
<path d="M73.9767 23.9202C72.7316 23.9317 71.5093 23.5861 70.4547 22.9243C69.3957 22.2625 68.5229 21.3417 67.9187 20.2489C67.2853 19.1154 66.9596 17.836 66.9738 16.5377C66.9669 15.5566 67.1526 14.5838 67.5204 13.6743C67.871 12.803 68.3815 12.005 69.0255 11.3213C69.6582 10.65 70.4172 10.1102 71.259 9.73278C72.1131 9.34843 73.04 9.15227 73.9767 9.15762C75.019 9.1462 76.0489 9.38395 76.9807 9.85106C77.883 10.3068 78.6743 10.9548 79.2988 11.7496C79.9383 12.5615 80.4097 13.4925 80.6857 14.4885C80.9763 15.5364 81.0429 16.6338 80.8811 17.7092H70.6427C70.766 18.2153 70.9849 18.6932 71.2876 19.1172C71.5844 19.5316 71.9724 19.8724 72.4217 20.1132C72.901 20.3661 73.4347 20.4985 73.9767 20.4991C74.5502 20.5143 75.1162 20.3662 75.6088 20.0721C76.1036 19.7721 76.5227 19.3623 76.8338 18.8744L80.3197 19.6861C79.7622 20.914 78.8813 21.967 77.7713 22.7325C76.6623 23.5167 75.3348 23.9322 73.9767 23.9202ZM70.5307 15.152H77.4214C77.3234 14.6026 77.1007 14.083 76.7703 13.6332C76.4463 13.1861 76.0281 12.8155 75.5453 12.5476C75.0665 12.2784 74.5259 12.1385 73.9767 12.1418C73.4325 12.1372 72.8966 12.2745 72.4217 12.5401C71.9447 12.8077 71.5314 13.1755 71.2104 13.6183C70.8775 14.0755 70.6458 14.5983 70.5307 15.152Z" fill="white"/>
<path d="M88.9438 23.9202C87.6988 23.9317 86.4765 23.5861 85.4219 22.9243C84.3634 22.2624 83.491 21.3416 82.8872 20.2489C82.2528 19.1158 81.9265 17.8362 81.941 16.5377C81.9347 15.5567 82.1204 14.584 82.4875 13.6743C82.8387 12.8033 83.3491 12.0053 83.9927 11.3213C84.6274 10.6491 85.3891 10.1092 86.2336 9.73279C87.0873 9.34842 88.0138 9.15226 88.9501 9.15763C89.9924 9.14611 91.0223 9.38386 91.9541 9.85107C92.8566 10.3065 93.6479 10.9546 94.2722 11.7496C94.9117 12.5615 95.3831 13.4926 95.6591 14.4885C95.9495 15.5364 96.0165 16.6337 95.8558 17.7092H85.6173C85.7402 18.2153 85.9586 18.6932 86.261 19.1172C86.558 19.532 86.9465 19.8728 87.3964 20.1132C87.8752 20.3662 88.4085 20.4987 88.9501 20.4991C89.5236 20.5143 90.0896 20.3662 90.5822 20.0721C91.0775 19.7728 91.4968 19.3629 91.8072 18.8744L95.2931 19.6862C94.7348 20.9138 93.8535 21.9667 92.7434 22.7325C91.6331 23.5177 90.3037 23.9332 88.9438 23.9202ZM85.4941 15.1521H92.3849C92.2863 14.6028 92.0636 14.0833 91.7338 13.6332C91.4089 13.1864 90.9904 12.8159 90.5075 12.5476C90.0287 12.2784 89.4881 12.1385 88.9389 12.1418C88.3951 12.1371 87.8596 12.2744 87.3852 12.5402C86.9076 12.8073 86.4938 13.1752 86.1726 13.6183C85.8396 14.0753 85.6083 14.5983 85.4941 15.1521Z" fill="white"/>
<path d="M108.493 2.54688H111.91V23.5554H108.493V21.805C108.045 22.4302 107.467 22.951 106.799 23.3313C106.076 23.7338 105.26 23.9371 104.433 23.9201C103.452 23.9273 102.479 23.7319 101.576 23.3462C100.7 22.9707 99.9032 22.4311 99.2294 21.7564C98.5547 21.0826 98.0151 20.2861 97.6396 19.4097C97.253 18.505 97.0576 17.5301 97.0657 16.5463C97.0579 15.5625 97.2533 14.5877 97.6396 13.6829C98.0155 12.8071 98.555 12.011 99.2294 11.3374C99.9032 10.6628 100.7 10.1232 101.576 9.74765C102.479 9.36191 103.452 9.16653 104.433 9.17373C105.259 9.15675 106.075 9.35726 106.799 9.75512C107.47 10.134 108.049 10.658 108.493 11.2889V2.54688ZM104.473 20.6285C105.157 20.6413 105.83 20.4511 106.407 20.082C106.969 19.7155 107.423 19.2053 107.722 18.6042C108.044 17.9685 108.207 17.2648 108.199 16.5525C108.208 15.8358 108.045 15.1275 107.722 14.4872C107.422 13.8849 106.965 13.3745 106.399 13.0094C105.824 12.6428 105.155 12.4528 104.473 12.4629C103.78 12.4555 103.099 12.6478 102.512 13.0169C101.926 13.3845 101.44 13.8923 101.098 14.4946C100.741 15.121 100.557 15.8315 100.566 16.5525C100.557 17.274 100.741 17.9849 101.098 18.6117C101.44 19.2143 101.929 19.7203 102.52 20.082C103.106 20.4448 103.783 20.6343 104.473 20.6285Z" fill="white"/>
<path d="M116.014 7.4641C115.781 7.46883 115.55 7.42724 115.334 7.34175C115.118 7.25625 114.92 7.12856 114.754 6.96612C114.584 6.80543 114.45 6.61071 114.361 6.39468C114.271 6.17865 114.228 5.94619 114.235 5.71247C114.23 5.48024 114.273 5.24952 114.363 5.03513C114.452 4.82074 114.585 4.62741 114.754 4.46752C114.92 4.3035 115.116 4.17436 115.333 4.08776C115.549 4.00115 115.781 3.95884 116.014 3.96331C116.246 3.95818 116.477 4.00021 116.692 4.08688C116.908 4.17354 117.103 4.30304 117.267 4.46752C117.434 4.62853 117.565 4.82224 117.653 5.03648C117.742 5.25073 117.784 5.48089 117.779 5.71247C117.786 5.94554 117.744 6.17743 117.656 6.39331C117.568 6.60919 117.435 6.8043 117.267 6.96612C117.102 7.12883 116.907 7.25675 116.691 7.3423C116.476 7.42784 116.245 7.46926 116.014 7.4641ZM114.291 9.55063H117.709V23.5563H114.291V9.55063Z" fill="white"/>
<path d="M119.516 16.7625V9.54932H122.933V16.7065C122.925 17.3908 123.079 18.0673 123.381 18.681C123.661 19.258 124.091 19.7491 124.626 20.1027C125.167 20.4555 125.801 20.6384 126.446 20.6281C127.073 20.6447 127.689 20.4606 128.204 20.1027C128.704 19.7405 129.097 19.2491 129.34 18.681C129.61 18.0583 129.746 17.3854 129.738 16.7065V9.54932H133.155V23.555H129.739V21.8892C129.294 22.4955 128.729 23.004 128.08 23.3832C127.408 23.7665 126.646 23.9622 125.874 23.9496C124.576 23.9496 123.456 23.6251 122.512 22.9761C121.561 22.3181 120.803 21.4193 120.314 20.3717C119.781 19.2434 119.508 18.0101 119.516 16.7625Z" fill="white"/>
<path d="M135.16 23.555V9.54934H138.577V10.9648C138.958 10.5322 139.399 10.157 139.887 9.85063C140.361 9.56238 140.907 9.41432 141.462 9.4236C142.368 9.41229 143.264 9.61624 144.076 10.0187C144.873 10.4222 145.569 10.999 146.113 11.7068C146.659 10.9977 147.358 10.4208 148.158 10.0187C148.967 9.61809 149.86 9.41419 150.763 9.4236C151.903 9.40545 153.024 9.71669 153.991 10.32C154.935 10.9128 155.71 11.7402 156.239 12.7215C156.795 13.7414 157.079 14.8867 157.066 16.048V23.555H153.649V16.0542C153.657 15.4934 153.532 14.9387 153.284 14.4358C153.053 13.9681 152.703 13.5696 152.269 13.2804C151.822 12.9869 151.297 12.8354 150.763 12.846C150.225 12.8368 149.696 12.9881 149.244 13.2804C148.801 13.5679 148.442 13.9662 148.201 14.4358C147.945 14.9364 147.817 15.4922 147.827 16.0542V23.5612H144.41V16.0542C144.418 15.4911 144.286 14.9348 144.025 14.4358C143.779 13.9674 143.417 13.5697 142.974 13.2804C142.526 12.9895 142.002 12.8383 141.468 12.846C140.943 12.8409 140.43 12.9974 139.998 13.2941C139.556 13.5956 139.2 14.0055 138.962 14.4843C138.709 14.9882 138.581 15.5453 138.588 16.109V23.56L135.16 23.555Z" fill="white"/>
</svg>
